<svg preserveAspectRatio="none" width="100%" height="100%" overflow="visible" style="display: block;" viewBox="0 0 50.5139 48.2929" fill="none" xmlns="http://www.w3.org/2000/svg">
<path id="Star 1" d="M22.9721 1.39917C23.9241 -0.466389 26.5898 -0.466389 27.5418 1.39917L33.507 13.0879C33.8797 13.8183 34.5792 14.3265 35.389 14.4552L48.349 16.5164C50.4174 16.8454 51.2411 19.3806 49.7611 20.8625L40.4878 30.1478C39.9083 30.7279 39.6412 31.5502 39.7689 32.3601L41.8135 45.3228C42.1398 47.3916 39.9832 48.9585 38.1165 48.0088L26.4201 42.0586C25.6892 41.6868 24.8247 41.6868 24.0938 42.0586L12.3974 48.0088C10.5307 48.9585 8.37412 47.3916 8.70044 45.3228L10.745 32.3601C10.8728 31.5502 10.6056 30.7279 10.0262 30.1478L0.752823 20.8625C-0.727226 19.3806 0.0965038 16.8454 2.16496 16.5164L15.125 14.4552C15.9348 14.3265 16.6342 13.8183 17.0069 13.0879L22.9721 1.39917Z" fill="#E5E7EB"/>
</svg>
