<svg preserveAspectRatio="none" width="100%" height="100%" overflow="visible" style="display: block;" viewBox="0 0 51.3701 49.1115" fill="none" xmlns="http://www.w3.org/2000/svg">
<path id="Star 1" d="M23.3614 1.42289C24.3296 -0.474292 27.0405 -0.474297 28.0086 1.42288L34.0749 13.3097C34.454 14.0525 35.1652 14.5693 35.9888 14.7003L49.1684 16.7964C51.2719 17.1309 52.1096 19.7091 50.6045 21.2161L41.174 30.6587C40.5847 31.2487 40.313 32.0849 40.443 32.9086L42.5222 46.0909C42.854 48.1949 40.6609 49.7883 38.7625 48.8225L26.8679 42.7715C26.1246 42.3934 25.2454 42.3934 24.5022 42.7715L12.6076 48.8225C10.7092 49.7883 8.51605 48.1949 8.8479 46.0909L10.9271 32.9086C11.057 32.0849 10.7853 31.2487 10.1961 30.6587L0.765584 21.2161C-0.739551 19.7091 0.0981354 17.1309 2.20165 16.7964L15.3813 14.7003C16.2048 14.5693 16.9161 14.0525 17.2952 13.3097L23.3614 1.42289Z" fill="#E5E7EB"/>
</svg>
